<?xml version="1.0" encoding="utf-8"?>
<!-- Generator: Adobe Illustrator 18.1.1, SVG Export Plug-In . SVG Version: 6.00 Build 0)  -->
<svg version="1.1" id="Layer_1" xmlns="http://www.w3.org/2000/svg" xmlns:xlink="http://www.w3.org/1999/xlink" x="0px" y="0px"
	 viewBox="-429 231 100 100" enable-background="new -429 231 100 100" xml:space="preserve">
<rect x="-351.2" y="278.6" width="4.9" height="1.6"/>
<rect x="-354.4" y="263.3" transform="matrix(0.5 0.866 -0.866 0.5 53.2968 439.1015)" width="1.6" height="4.9"/>
<line fill="none" stroke="#010101" stroke-width="2" stroke-miterlimit="10" x1="-377.6" y1="291.1" x2="-377.6" y2="296"/>
<rect x="-364.8" y="304.4" transform="matrix(0.5001 0.866 -0.866 0.5001 83.1897 466.3183)" width="4.9" height="1.6"/>
<rect x="-354.5" y="293.5" transform="matrix(0.8661 0.4998 -0.4998 0.8661 99.9833 215.3529)" width="4.9" height="1.6"/>
<rect x="-377.3" y="250.5" width="1.6" height="4.9"/>
<rect x="-406.6" y="278.6" width="4.9" height="1.6"/>
<rect x="-401.7" y="264.9" transform="matrix(0.866 0.5 -0.5 0.866 79.3647 235.2235)" width="4.9" height="1.6"/>
<rect x="-391.8" y="255.8" transform="matrix(0.4997 0.8662 -0.8662 0.4997 27.5199 465.6335)" width="4.9" height="1.6"/>
<rect x="-377.3" y="306.4" width="1.6" height="4.9"/>
<rect x="-391.4" y="302.8" transform="matrix(0.8659 0.5002 -0.5002 0.8659 100.3001 236.2834)" width="1.6" height="4.9"/>
<rect x="-401.7" y="291.9" transform="matrix(0.4997 0.8662 -0.8662 0.4997 54.4024 494.4558)" width="1.6" height="4.9"/>
<path d="M-350,254.9l3.9-3.9l-11.2-1.3l1.3,11.2l3.7-3.7c5.7,6,9.3,14.1,9.3,23.1c0,18.4-15,33.4-33.4,33.4s-33.4-15-33.4-33.4
	s15-33.4,33.4-33.4c0.1,0,0.2,0,0.4,0v-3.3c-0.1,0-0.2,0-0.4,0c-20.3,0-36.7,16.4-36.7,36.7s16.4,36.7,36.7,36.7
	c20.2,0,36.7-16.4,36.7-36.7C-339.8,270.4-343.7,261.5-350,254.9z"/>
<path d="M-365.6,268.3c-4.1-1.9-9.4-0.1-11.2,3.9c-1.9-4-7.2-5.8-11.2-3.9c-4.3,2-6.4,7.1-3,13.2c2.4,4.3,6.7,7.5,14.2,13.3
	c7.5-5.8,11.8-9,14.2-13.3C-359.2,275.4-361.3,270.3-365.6,268.3z"/>
</svg>
