<?xml version="1.0" encoding="utf-8"?>
<!-- Generator: Adobe Illustrator 18.1.1, SVG Export Plug-In . SVG Version: 6.00 Build 0)  -->
<svg version="1.1" id="Layer_1" xmlns="http://www.w3.org/2000/svg" xmlns:xlink="http://www.w3.org/1999/xlink" x="0px" y="0px"
	 viewBox="-435 231 88 100" enable-background="new -435 231 88 100" xml:space="preserve">
<path d="M-423.6,267.7V312c0,3.3,2.7,6,5.9,6h53.3c3.3,0,5.9-2.7,5.9-6v-44.4H-423.6z M-407.3,313.6h-11.9v-11.9h11.9V313.6z
	 M-407.3,298.8h-11.9v-11.9h11.9V298.8z M-407.3,284h-11.9v-11.9h11.9V284z M-392.5,313.6h-11.9v-11.9h11.9V313.6z M-392.5,298.8
	h-11.9v-11.9h11.9V298.8z M-392.5,284h-11.9v-11.9h11.9V284z M-377.7,313.6h-11.9v-11.9h11.9V313.6z M-377.7,298.8h-11.9v-11.9h11.9
	V298.8z M-377.7,284h-11.9v-11.9h11.9V284z M-362.9,313.6h-11.9v-11.9h11.9V313.6z M-362.9,298.8h-11.9v-11.9h11.9V298.8z
	 M-362.9,284h-11.9v-11.9h11.9V284z"/>
<path d="M-364.3,252.9h-9.6v-6.7c0-1.2-1-2.2-2.2-2.2c-1.2,0-2.2,1-2.2,2.2v6.7h-25.2v-6.7c0-1.2-1-2.2-2.2-2.2
	c-1.2,0-2.2,1-2.2,2.2v6.7h-9.6c-3.3,0-5.9,2.7-5.9,6v5.1l0,0v0.7h65.2V264l0,0v-5.1C-358.4,255.5-361.1,252.9-364.3,252.9z
	 M-405.8,263.2c-2.5,0-4.4-2-4.4-4.4c0-1.6,0.9-3.1,2.2-3.8v3.8c0,1.2,1,2.2,2.2,2.2c1.2,0,2.2-1,2.2-2.2v-3.8
	c1.3,0.8,2.2,2.2,2.2,3.8C-401.4,261.2-403.4,263.2-405.8,263.2z M-376.2,263.2c-2.5,0-4.4-2-4.4-4.4c0-1.6,0.9-3.1,2.2-3.8v3.8
	c0,1.2,1,2.2,2.2,2.2c1.2,0,2.2-1,2.2-2.2v-3.8c1.3,0.8,2.2,2.2,2.2,3.8C-371.7,261.2-373.7,263.2-376.2,263.2z"/>
</svg>
