<?xml version="1.0" encoding="utf-8"?>
<!-- Generator: Adobe Illustrator 18.1.1, SVG Export Plug-In . SVG Version: 6.00 Build 0)  -->
<svg version="1.1" id="Layer_1" xmlns="http://www.w3.org/2000/svg" xmlns:xlink="http://www.w3.org/1999/xlink" x="0px" y="0px"
	 viewBox="572 -412 1344 1024" enable-background="new 572 -412 1344 1024" xml:space="preserve">
<g id="icomoon-ignore">
</g>
<path d="M1790.4,310.5c107.4-221.6-13.7-486.7-281.6-616.6c-269.3-130.5-563-62-668.7,156c-63.4,130.7-16.3,269.2,36.6,364.8
	l-45.9,94.7l-36,74.2l-10.7,22.1c-2.4,4.9-2.1,10.6,0.7,15.3c1.7,2.7,4,4.8,6.7,6.1c2,1,4.2,1.5,6.5,1.6c5.1,0.2,125,3.1,253.7-48
	c33.1,24.4,71.2,50.9,108.6,69C1432.7,581.8,1686,525.8,1790.4,310.5L1790.4,310.5z M1174.2,420.9c-37.7-18.3-77.1-46.3-110.6-71.3
	c-4.5-3.3-10.5-4.1-15.7-2c-91.3,38-181.2,46.6-223.6,48.6l84.9-175.1c2.3-4.8,2.1-10.3-0.5-14.9C858,117.2,810-14.5,868.9-136.1
	C966.8-338,1241.7-400,1494.8-277.3c251.6,121.9,366.2,368.6,266.8,573.8C1665.5,494.7,1429.5,544.7,1174.2,420.9z"/>
</svg>
