<?xml version="1.0" encoding="utf-8"?>
<!-- Generator: Adobe Illustrator 18.1.1, SVG Export Plug-In . SVG Version: 6.00 Build 0)  -->
<svg version="1.1" id="Ebene_1" xmlns="http://www.w3.org/2000/svg" xmlns:xlink="http://www.w3.org/1999/xlink" x="0px" y="0px"
	 viewBox="0 0 960 560" enable-background="new 0 0 960 560" xml:space="preserve">
<path fill="#FAFAFA" d="M512.3,246.8L495.5,230c18.5-18.5,18.5-48.2,0-66.6s-48.2-18.5-66.6,0L412,146.6c27.4-27.4,72.2-27.4,99.7,0
	C539.7,174.6,539.7,219.4,512.3,246.8z"/>
<path fill="#FAFAFA" d="M472.2,420.3c-38.6,0-70.6-31.9-70.6-70.6h23.5c0,25.8,21.3,47,47,47s47-21.3,47-47c0-35.8,14-70,39.8-95.8
	c21.3-21.3,32.5-49.3,32.5-79c0-62.2-49.8-112-111.4-112s-111.4,49.8-111.4,111.4H345c0-74.5,60.5-135,135-135
	c74.5,0,135,60.5,135,135c0,36.4-14,70.6-39.8,95.8c-21.3,21.3-32.5,49.3-32.5,79C542.7,388.9,510.8,420.3,472.2,420.3z"/>
</svg>
