<?xml version="1.0" encoding="utf-8"?>
<!-- Generator: Adobe Illustrator 18.1.1, SVG Export Plug-In . SVG Version: 6.00 Build 0)  -->
<svg version="1.1" id="レイヤー_1" xmlns="http://www.w3.org/2000/svg" xmlns:xlink="http://www.w3.org/1999/xlink" x="0px"
	 y="0px" viewBox="-433 196.7 412 408.3" enable-background="new -433 196.7 412 408.3" xml:space="preserve">
<path id="quote-15-icon" fill="#FAFAFA" d="M-306.1,498.7C-306.1,498.7-306.1,498.7-306.1,498.7c-24.9,15.3-79.6,30.8-118.1,37.8
	c14.4-28.5,30.3-67.6,29.5-94.9c-19.4-23.3-30.3-53.3-30.3-83.8c0-86.1,83.8-149.1,177.6-149.1c93.2,0,177.6,62.5,177.6,149.1
	c0,1.2,0,2.5-0.1,3.7c-10.8-5.8-22.5-10.6-35.1-14.1c-6.6-58.3-67.9-104.2-142.4-104.2c-78.8,0-143,51.4-143,114.6
	c0,33.3,14.4,54.2,34.7,74.8c-4.1,30.7-14,57.3-14,57.3s29.3-7.7,62.6-27.1C-308.6,475-308.2,487-306.1,498.7z M-50.8,534.8
	c13.3-16,20.8-36.7,20.8-57.7c0-59.3-57.7-102.6-122.2-102.6c-64.1,0-122.2,43-122.2,102.6c0,62.1,68.5,120,162.6,97
	c17.1,10.5,54.7,21.2,81.2,26C-40.4,580.5-51.4,553.6-50.8,534.8z M-158.5,473c0,25.8-16.3,43.2-40,47.9l-4.5-9.7
	c11-4.1,18-14.1,18-24h-18.6v-43h45.1C-158.5,444.2-158.5,457.9-158.5,473z M-95.1,473c0,25.8-16.3,43.2-40,47.9l-4.5-9.7
	c11-4.1,18-14.1,18-24h-18.6v-43h45.1C-95.1,444.2-95.1,457.9-95.1,473z M-253.1,364c0,0,0-14.2,0-29.8c0-26.7,16.9-44.8,41.4-49.6
	l4.7,10.1c-11.4,4.3-18.6,14.6-18.6,24.9h19.2V364H-253.1z M-318.6,364c0,0,0-14.2,0-29.8c0-26.7,16.9-44.8,41.4-49.6l4.7,10.1
	c-11.4,4.3-18.6,14.6-18.6,24.9h19.2V364H-318.6z"/>
</svg>
