<?xml version="1.0" encoding="utf-8"?>
<!-- Generator: Adobe Illustrator 18.1.1, SVG Export Plug-In . SVG Version: 6.00 Build 0)  -->
<svg version="1.1" id="Layer_1" xmlns="http://www.w3.org/2000/svg" xmlns:xlink="http://www.w3.org/1999/xlink" x="0px" y="0px"
	 viewBox="0 0 200 200" enable-background="new 0 0 200 200" xml:space="preserve">
<path fill="#FAFAFA" d="M183.1,26.8H21c-6.2,0-11.3,4.7-11.3,10.4v99.9c0,5.7,5,10.4,11.3,10.4h65.3v8.3H84c-3.7,0-6.8,2.8-6.8,6.2
	s3,6.2,6.8,6.2h36c3.7,0,6.8-2.8,6.8-6.2s-3-6.2-6.8-6.2h-2.3v-8.3h65.3c6.2,0,11.3-4.7,11.3-10.4V37.2
	C194.3,31.5,189.3,26.8,183.1,26.8z M122.3,162.1c0,1.1-1,2.1-2.3,2.1H84c-1.2,0-2.3-0.9-2.3-2.1s1-2.1,2.3-2.1h36
	C121.3,160.1,122.3,161,122.3,162.1z M113.3,155.9H90.8v-8.3h22.5V155.9z M189.8,137.2c0,3.4-3,6.2-6.8,6.2H21
	c-3.7,0-6.8-2.8-6.8-6.2V37.2c0-3.4,3-6.2,6.8-6.2h162.1c3.7,0,6.8,2.8,6.8,6.2V137.2z"/>
<path fill="#FAFAFA" d="M183.1,35.1H21c-1.2,0-2.3,0.9-2.3,2.1v99.9c0,1.2,1,2.1,2.3,2.1h162.1c1.2,0,2.3-0.9,2.3-2.1V37.2
	C185.3,36.1,184.3,35.1,183.1,35.1z M180.8,135.1H23.2V39.3h157.6V135.1z"/>
<path id="quote-15-icon" fill="#FAFAFA" d="M85,106.5C85,106.5,85,106.5,85,106.5c-5,3.1-16,6.2-23.7,7.6c2.9-5.7,6.1-13.6,5.9-19.1
	c-3.9-4.7-6.1-10.7-6.1-16.8c0-17.3,16.8-30,35.7-30c18.7,0,35.7,12.6,35.7,30c0,0.2,0,0.5,0,0.7c-2.2-1.2-4.5-2.1-7.1-2.8
	c-1.3-11.7-13.6-20.9-28.6-20.9c-15.8,0-28.7,10.3-28.7,23c0,6.7,2.9,10.9,7,15c-0.8,6.2-2.8,11.5-2.8,11.5s5.9-1.6,12.6-5.4
	C84.5,101.7,84.6,104.1,85,106.5z M136.3,113.7c2.7-3.2,4.2-7.4,4.2-11.6c0-11.9-11.6-20.6-24.5-20.6c-12.9,0-24.5,8.6-24.5,20.6
	c0,12.5,13.8,24.1,32.7,19.5c3.4,2.1,11,4.3,16.3,5.2C138.4,122.9,136.2,117.5,136.3,113.7z M114.7,101.3c0,5.2-3.3,8.7-8,9.6
	l-0.9-2c2.2-0.8,3.6-2.8,3.6-4.8h-3.7v-8.6h9.1C114.7,95.5,114.7,98.3,114.7,101.3z M127.4,101.3c0,5.2-3.3,8.7-8,9.6l-0.9-2
	c2.2-0.8,3.6-2.8,3.6-4.8h-3.7v-8.6h9.1C127.4,95.5,127.4,98.3,127.4,101.3z M95.7,79.4c0,0,0-2.9,0-6c0-5.4,3.4-9,8.3-10l0.9,2
	c-2.3,0.9-3.7,2.9-3.7,5h3.9v8.9H95.7z M82.5,79.4c0,0,0-2.9,0-6c0-5.4,3.4-9,8.3-10l0.9,2c-2.3,0.9-3.7,2.9-3.7,5h3.9v8.9H82.5z"/>
</svg>
