<?xml version="1.0" encoding="utf-8"?>
<!-- Generator: Adobe Illustrator 18.1.1, SVG Export Plug-In . SVG Version: 6.00 Build 0)  -->
<svg version="1.1" id="Layer_1" xmlns="http://www.w3.org/2000/svg" xmlns:xlink="http://www.w3.org/1999/xlink" x="0px" y="0px"
	 viewBox="0 0 960 560" enable-background="new 0 0 960 560" xml:space="preserve">
<path fill="#EDEFEF" d="M412.2,363.4c-2.3,0-4.7-0.6-5.8-2.3c-3.5-3.5-3.5-8.8,0-12.3c9.9-9.9,9.9-26.2,0-36.7
	c-3.5-3.5-3.5-8.8,0-12.3s8.8-3.5,12.3,0c16.9,16.9,16.9,44.3,0,61.2C416.9,362.9,414.5,363.4,412.2,363.4z"/>
<path fill="#EDEFEF" d="M442.5,394.4c-2.3,0-4.7-0.6-5.8-2.3c-3.5-3.5-3.5-8.8,0-12.3c12.8-12.8,20.4-30.3,20.4-49
	c0-18.7-7-35.6-20.4-49c-3.5-3.5-3.5-8.8,0-12.3s8.8-3.5,12.3,0c16.3,16.3,25.1,37.9,25.1,61.2s-8.8,44.9-25.1,61.2
	C447.2,393.2,444.9,394.4,442.5,394.4z"/>
<path fill="#EDEFEF" d="M473.4,424.7c-2.3,0-4.7-0.6-5.8-2.3c-3.5-3.5-3.5-8.8,0-12.3c43.8-43.8,43.8-114.9,0-158.7
	c-3.5-3.5-3.5-8.8,0-12.3c3.5-3.5,8.8-3.5,12.3,0c50.8,50.8,50.8,133,0,183.2C477.5,424.1,475.2,424.7,473.4,424.7z"/>
<path fill="#EDEFEF" d="M278.6,471.9c-4.7,0-8.8-4.1-8.8-8.8s4.1-8.8,8.8-8.8c29.8,0,40.2-47.8,42.6-69.4h-23.9
	c-23.9,0-43.2-19.2-43.2-43.2c0-23.9,19.2-43.2,43.8-43.2H313v-8.8c0-4.7,4.1-8.8,8.8-8.8h24.5c1.2-0.6,3.5-1.7,5.2-5.2
	c2.3-5.2,3.5-17.5-11.7-45.5C328.8,210.6,320,196,313,184.4c-12.8-20.4-21-34.4-28-57.7l-1.2-4.1c-8.8-28.6-16.3-49-35-49
	c-4.7,0-8.8-4.1-8.8-8.8c0-4.7,4.1-8.8,8.8-8.8c33.3,0,44.3,35.6,51.9,61.3l1.2,4.1c6.4,21,14,33.3,26.2,53.7
	c7,11.7,16.3,26.2,27.4,46.7c14.6,26.8,18.7,47.3,11.7,61.2c-5.8,11.7-16.3,14-17.5,14.6h-18.7v8.8c0,4.7-4.1,8.8-8.8,8.8h-23.9
	c-14.6,0-26.2,11.7-26.2,25.7c0,14.6,11.7,25.7,25.7,25.7h33.3c4.7,0,8.8,4.1,8.8,8.8C339.3,395.5,328.2,471.9,278.6,471.9z"/>
</svg>
