<?xml version="1.0" encoding="utf-8"?>
<!-- Generator: Adobe Illustrator 18.1.1, SVG Export Plug-In . SVG Version: 6.00 Build 0)  -->
<svg version="1.1" id="Layer_1" xmlns="http://www.w3.org/2000/svg" xmlns:xlink="http://www.w3.org/1999/xlink" x="0px" y="0px"
	 viewBox="-429 231 100 100" enable-background="new -429 231 100 100" xml:space="preserve">
<g id="Captions">
</g>
<g id="Layer_7" display="none">
	<path display="inline" d="M-358.9,284.3l-1.7-11.7c0,0,0,0,0,0l9.5-7.1l-9.5-7.1c0,0,0,0,0,0l1.7-11.7l-11.7,1.7c0,0,0,0,0,0
		l-7.1-9.5l-7.1,9.5c0,0,0,0,0,0l-11.7-1.7l1.7,11.7c0,0,0,0,0,0l-9.5,7.1l9.5,7.1c0,0,0,0,0,0l-1.7,11.7l11.7-1.7c0,0,0,0,0,0
		l7.1,9.5l7.1-9.5c0,0,0,0,0,0L-358.9,284.3z"/>
</g>
<g id="Your_Icon" display="none">
	<polygon display="inline" points="-377.7,239.5 -383.9,259.4 -404.4,259.4 -387.7,271.4 -394.1,291.4 -377.7,279 -361.3,291.3 
		-367.6,271.4 -351.1,259.4 -371.6,259.4 	"/>
</g>
<g id="Layer_6" display="none">
	<path display="inline" d="M-371.9,259.7l-5.8-20.8l-5.8,20.8l-20.8,5.8l20.8,5.8l5.8,20.8l5.8-20.8l20.8-5.8L-371.9,259.7z
		 M-377.7,269.9c-2.4,0-4.4-2-4.4-4.4c0-2.4,2-4.4,4.4-4.4c2.5,0,4.4,2,4.4,4.4C-373.3,267.9-375.3,269.9-377.7,269.9z"/>
</g>
<g id="Layer_5" display="none">
	<polygon display="inline" points="-395,259.2 -404.4,268.6 -385.5,287.4 -351.1,252.9 -360.5,243.5 -385.5,268.6 	"/>
</g>
<g id="Layer_4">
	<polygon points="-394,305.2 -376.2,305.2 -358.4,278.5 -376.2,251.9 -394,251.9 -376.2,278.5 	"/>
</g>
</svg>
