<?xml version="1.0" encoding="utf-8"?>
<!-- Generator: Adobe Illustrator 18.1.1, SVG Export Plug-In . SVG Version: 6.00 Build 0)  -->
<svg version="1.1" id="Capa_1" xmlns="http://www.w3.org/2000/svg" xmlns:xlink="http://www.w3.org/1999/xlink" x="0px" y="0px"
	 viewBox="-435 237.1 87.9 87.9" enable-background="new -435 237.1 87.9 87.9" xml:space="preserve">
<path d="M-425.5,307.9l5.7,5.7l12.2-12.2l-5.7-5.7L-425.5,307.9z M-368.6,256.7c-5.3-5.3-12.3-8.2-19.8-8.2s-14.5,2.9-19.8,8.2
	c-5.3,5.3-8.2,12.3-8.2,19.8c0,7.5,2.9,14.5,8.2,19.8c1.5,1.5,3.2,2.8,5,4c-0.2,1.8-0.3,3.7-0.3,5.7c0,0.6,0.4,0.8,0.5,0.9
	c0.3,0.2,0.6,0.3,0.9,0.4c0.5,0.2,1.1,0.3,1.5,0.4c0.1,0,0.1,0,0.2,0.1c0.2,2.4,1.4,4.1,3.2,4.8c1.8,0.8,4.1,0.8,6.7,0.8
	c0.6,0,1.3,0,2,0c3.1,0,5.8,0,8-0.7c1.1-0.4,2.1-0.9,2.8-1.9c0.6-0.8,1-1.8,1.1-3.1c0.3-0.1,0.8-0.3,1.2-0.4c0.3-0.1,0.7-0.2,1-0.3
	c0.1-0.1,0.3-0.1,0.5-0.3c0.1-0.1,0.4-0.3,0.5-0.9c0-1.9-0.1-3.7-0.3-5.5c1.9-1.2,3.7-2.6,5.4-4.2
	C-357.6,285.4-357.6,267.6-368.6,256.7z M-399.7,306.1c-0.4-0.2-0.9-0.3-1.4-0.4c-0.2-0.1-0.4-0.1-0.6-0.2c0-1.5,0.1-2.9,0.2-4.2
	c0.7,0.4,1.5,0.7,2.2,1L-399.7,306.1L-399.7,306.1z M-378.5,307.3c-0.1,1.2-0.4,1.9-0.8,2.5c-0.6,0.8-1.7,1.3-3.3,1.6
	c-1.6,0.3-3.6,0.3-5.9,0.3c-0.7,0-1.3,0-2,0c-2.5,0-4.6-0.1-5.9-0.7c-1.3-0.6-1.9-1.4-2.1-3.7c-0.2-1.3-0.2-3.1-0.2-4.7
	c3.3,1.3,6.8,2,10.4,2c3.5,0,6.8-0.6,10-1.8C-378.5,304.9-378.5,307.1-378.5,307.3z M-388.3,297.2c-4,0-7.8-1.1-11-3.2
	c0.7-1.2,1.6-2.3,2.7-3.1c0.7,0.4,1.3,0.8,2.1,1.1c0.1,0.5,0.3,1.2,0.8,2c0.8,1.2,2.5,2.4,5.3,2.3h0.1c2.7,0,4.4-1.2,5.2-2.4
	c0.5-0.8,0.7-1.5,0.7-2c0.7-0.3,1.5-0.7,2.1-1.2c1.2,0.9,2.2,2,2.9,3.4C-380.8,296.1-384.5,297.2-388.3,297.2z M-388.7,291.4
	c-0.1,0-0.2,0-0.2,0c-0.2,0-0.3,0-0.5,0c-6.6-0.4-11.8-5.6-12.3-12.1l2.6-3.8c0,0,2.8,2,8.7,3.3c5.9,1.3,11.5-0.1,11.5-0.1
	s1.6,2.9,2.7,3.9c-0.8,2.4-2.3,4.4-4.2,5.9l-0.1,0l-0.5,0.4C-383.2,290.4-385.8,291.4-388.7,291.4z M-384.7,292.7
	c-0.1,0.3-0.3,0.5-0.6,0.8c-0.6,0.5-1.5,1-3.2,1c-2.4,0-3.3-0.8-3.8-1.5c0-0.1-0.1-0.1-0.1-0.2c1,0.2,2,0.4,3,0.5c0.1,0,0.3,0,0.4,0
	c0.1,0,0.2,0,0.3,0c0,0,0,0,0,0c0,0,0.1,0,0.1,0C-387.3,293.2-386,293.1-384.7,292.7z M-376.9,305.9c-0.1,0-0.2,0.1-0.2,0.1
	l-0.5-3.6c0.7-0.3,1.3-0.6,1.9-0.9c0.1,1.3,0.2,2.6,0.2,4C-375.9,305.6-376.4,305.8-376.9,305.9z M-376,293.1
	c-0.7-1.3-1.7-2.5-2.9-3.5c3.2-2.7,5.2-6.8,5.2-11.4c0-8.3-6.7-15-15-15c-8.3,0-15,6.7-15,15c0,4.6,2.1,8.8,5.4,11.5
	c-1.1,0.9-2,2-2.7,3.2c-0.7-0.6-1.4-1.2-2.1-1.8c-8.1-8.1-8.1-21.2,0-29.3c3.9-3.9,9.1-6.1,14.6-6.1s10.7,2.2,14.6,6.1
	c3.9,3.9,6.1,9.1,6.1,14.6c0,5.5-2.2,10.7-6.1,14.6C-374.4,291.9-375.2,292.5-376,293.1z M-391.8,285.1c0.8,0,1.5-1.1,1.5-2.5
	c0-1.4-0.7-2.5-1.5-2.5c-0.8,0-1.5,1.1-1.5,2.5C-393.3,284-392.7,285.1-391.8,285.1z M-380.3,286.2c0.2-0.2,0.2-0.5,0-0.7
	c-0.2-0.2-0.5-0.2-0.7,0c0,0-0.2,0.2-0.5,0.5c-1,0.9-3.5,2.6-6.8,2.6c-2.2,0-4.1-0.7-5.5-1.3c-0.7-0.3-1.2-0.7-1.5-0.9
	c-0.4-0.2-0.5-0.4-0.5-0.4c-0.2-0.2-0.5-0.1-0.7,0c-0.2,0.2-0.1,0.5,0,0.7c0,0,3.3,2.9,8.1,2.9
	C-383.4,289.6-380.3,286.2-380.3,286.2z M-385.2,285.1c0.8,0,1.5-1.1,1.5-2.5c0-1.4-0.7-2.5-1.5-2.5c-0.8,0-1.5,1.1-1.5,2.5
	C-386.7,284-386,285.1-385.2,285.1z"/>
</svg>
