<?xml version="1.0" encoding="utf-8"?>
<!-- Generator: Adobe Illustrator 18.1.1, SVG Export Plug-In . SVG Version: 6.00 Build 0)  -->
<svg version="1.1" id="Layer_1" xmlns="http://www.w3.org/2000/svg" xmlns:xlink="http://www.w3.org/1999/xlink" x="0px" y="0px"
	 viewBox="-49 62.5 100 77.5" enable-background="new -49 62.5 100 77.5" xml:space="preserve">
<path d="M22.4,106.7c-1.2,0-2.2,1-2.2,2.2c0,0.3,0.1,0.6,0.2,0.9l0,0c1.3,2.8,2.1,6,2.1,9.3c0,3.3-0.8,6.5-2.1,9.3l0,0
	c-0.1,0.3-0.2,0.6-0.2,0.9c0,1.2,1,2.2,2.2,2.2c0.9,0,1.7-0.6,2-1.4c1.5-3.3,2.4-7.1,2.4-11s-0.9-7.6-2.4-11
	C24.2,107.3,23.4,106.7,22.4,106.7z"/>
<path d="M33.5,102.7c-1.2,0-2.2,1-2.2,2.2c0,0.3,0.1,0.6,0.2,0.9l0,0c2,4.1,3.1,8.6,3.1,13.4c0,4.8-1.2,9.4-3.1,13.4l0,0
	c-0.1,0.3-0.2,0.6-0.2,0.9c0,1.2,1,2.2,2.2,2.2c0.9,0,1.7-0.6,2-1.4c2.2-4.6,3.4-9.7,3.5-15.2c0-5.4-1.3-10.6-3.5-15.2
	C35.1,103.2,34.4,102.7,33.5,102.7z"/>
<path d="M46.7,99.9c0-0.1-0.1-0.1-0.1-0.2l0,0c-0.4-0.7-1.1-1.2-1.9-1.2c-1.2,0-2.2,1-2.2,2.2c0,0.3,0.1,0.6,0.2,0.9l0,0
	c2.5,5.4,3.9,11.3,3.9,17.7c0,6.3-1.4,12.3-3.9,17.7l0,0c-0.1,0.3-0.2,0.6-0.2,0.9c0,1.2,1,2.2,2.2,2.2c0.8,0,1.6-0.5,1.9-1.2
	c0,0,0,0,0,0c0-0.1,0.1-0.1,0.1-0.2c2.7-5.9,4.3-12.4,4.3-19.3C51,112.3,49.5,105.7,46.7,99.9z"/>
<path d="M15.7,107.9L9.6,92.4c0,0-0.6-6.4-1.2-8.8c-2.5-11-14.8-21-28.1-21C-35.9,62.6-49,75.7-49,91.9c0,9.4,4.4,17.7,11.2,23v24.9
	h31.3v-9h4.6c6.4,0,11.6-5.2,11.6-11.6v-8.2h3.9c1.3,0,2.4-1.1,2.4-2.4C15.9,108.4,15.9,108.1,15.7,107.9z M-0.6,99
	c-2.2,0-4-1.8-4-4c0-2.2,1.8-4,4-4c2.2,0,4,1.8,4,4C3.4,97.2,1.6,99-0.6,99z"/>
</svg>
