<?xml version="1.0" encoding="utf-8"?>
<!-- Generator: Adobe Illustrator 18.1.1, SVG Export Plug-In . SVG Version: 6.00 Build 0)  -->
<svg version="1.1" id="Layer_1" xmlns="http://www.w3.org/2000/svg" xmlns:xlink="http://www.w3.org/1999/xlink" x="0px" y="0px"
	 viewBox="-429 231 100 100" enable-background="new -429 231 100 100" xml:space="preserve">
<path d="M-374.6,305.3c-0.8,0-1.5-0.7-1.5-1.5s0.7-1.5,1.5-1.5c10,0,19.4-5.4,24.4-14.1c5-8.7,5-19.5,0-28.1
	c-5-8.7-14.4-14.1-24.4-14.1s-19.4,5.4-24.4,14.1c-5,8.7-5,19.5,0,28.1c2.6,4.4,1.1,8.9-4.1,12.7c-0.3,0.2-0.4,0.5-0.3,0.8
	c0.1,0.3,0.4,0.5,0.7,0.5h20.6c0.8,0,1.5,0.7,1.5,1.5s-0.7,1.5-1.5,1.5h-20.6c-1.6,0-3-1-3.5-2.5c-0.5-1.5,0-3.2,1.3-4.1
	c5.9-4.3,3.9-7.7,3.2-8.9c-5.5-9.6-5.5-21.5,0-31.1c5.5-9.6,15.9-15.6,26.9-15.6c11.1,0,21.4,6,26.9,15.6c5.5,9.6,5.5,21.5,0,31.1
	C-353.2,299.4-363.5,305.3-374.6,305.3z"/>
</svg>
