<?xml version="1.0" encoding="utf-8"?>
<!-- Generator: Adobe Illustrator 18.1.1, SVG Export Plug-In . SVG Version: 6.00 Build 0)  -->
<svg version="1.1" id="Layer_1" xmlns="http://www.w3.org/2000/svg" xmlns:xlink="http://www.w3.org/1999/xlink" x="0px" y="0px"
	 viewBox="0 0 320 300" enable-background="new 0 0 320 300" xml:space="preserve">
<path fill="#FAFAFA" d="M202.5,184.6c-4.7-9.3-13.1-14.5-21.1-18c-0.2-0.1-0.6-0.1-0.8-0.1c-1.4-2-3.8-3-6.2-3.5
	c6-2.7,11.6-7.3,15.8-13.4c2.1-3.1,3.8-6.4,5.1-9.9c1.2-0.2,2.4-1,3.1-2.3c0.7-1.5,0-3-1.1-3.5c-0.1,0-0.2,0-0.2,0
	c0.9-3.9,1.4-7.9,1.6-12c0.2,0.1,0.4,0.2,0.7,0.3c0.6,0.3,2.7,0.5,3.7,0.6c0.4,0,0-2.2,0-2.6c-0.1-2.1-0.3-4.3-0.5-6.4
	c-0.7-8.9-2.3-15.7-7.4-21.9c-2.8-3.5-6.1-6.7-9.7-8.7c-2.6-1.4-6.4-3.5-9.2-3.5c0,0,0,0,0,0c-3.6-1.6-7.3-2.2-11.1-2.6
	c-16.8-3.2-27,5.2-32.5,18.6c-4.6,11.5-4.6,24.8-9.2,35.9c2.9-1.1,5.4-2.3,7.5-3.7c0.2,1.4,0.4,2.8,0.6,4.2c-1,0.3-2,1-2.1,2.5
	c-0.1,1.6,1.2,2.6,2.3,2.7c0.3,0,0.6-0.1,0.9-0.2c3.2,11.9,9.9,21.8,19.8,26.2c-2.7,0.8-5.7,3.3-7.2,6.5c-6,2.1-12.3,6.4-16.4,12.5
	c-0.4,0.6,1.3,0.3,1.6-0.1c1.7-2.5,3.7-4.6,6-6.5c2.8,1.8,5.6,3.6,6.8,7.5c0.3,0.8,2,0.2,1.8-0.6c-1.3-4.1-4.2-6.1-7.2-8
	c2.3-1.7,4.7-3,7.1-3.9c-0.4,1.2-0.6,2.4-0.5,3.7c0.3,4.2,2.9,5.4,5.8,6.5c5.3,2,10,2.6,13.7,8.2c1,4.8,0.5,9.8-0.3,14.6
	c0,0.2,1.7,0.1,1.8-0.6c0.8-4.7,1.3-9.5,0.4-14.1c4.7-6.1,14.5-7.1,16.1-16.7c0.2-1.2,0.2-2.3-0.1-3.3c1.7,0.8,3.4,1.7,5,2.6
	c-3.1,1.7-4.3,6.3-4.9,10.4c-0.2,1,1.6,0.7,1.8-0.2c0.5-3.4,1.4-8.4,4.5-9.3c0,0,0.1,0,0.1,0c5,3.2,9.6,7.3,12.6,13.3
	C201.3,186.4,203,185.6,202.5,184.6z M196.9,136.8c-0.1,0.8-0.6,1.6-1.2,1.7c0.4-1.1,0.7-2.2,1-3.3
	C196.9,135.7,197,136.2,196.9,136.8z M131.2,134.4c-0.1-0.4-0.1-0.9,0-1.3c0-0.2,0.1-0.3,0.2-0.5c0.1-0.1,0.1-0.1,0.1-0.1
	c0.2,1.1,0.5,2.2,0.8,3.3C131.8,135.6,131.4,135.1,131.2,134.4z M132.5,126.3c2.7-2.2,4.9-5.1,7.2-9.4c-0.4,1.9-1.6,3.8-2.9,5.4
	c6.3,2.1,11.6-4.4,16.2-8.9c-1,2.3-2.5,4.2-4.1,5.7c9.6,5.8,19.4-12.7,24.2-27.5c-0.2,1.1-0.4,2.1-0.5,3.2
	c-0.4,3.7-0.8,8.3,0.3,11.9c0.9,2.8,2.2,5.1,4.1,7c1.6,1.6,5.4,5.4,7.4,5.2c-1.9-3.4-6.2-8.7-3.8-13.5c0.7,4.1,1.5,6.1,3.8,9
	c2.1,2.6,4.4,4.5,7.3,5.6c0.7,0.3,2.1,0.6,2.9,0.4c-2.4-2.2-6.2-6.5-6.5-10.9c0.9,1.7,1.2,4,2.4,5.7c1.6,2.4,3.8,4.4,6.2,5.8
	c-0.3,8.5-2,16.8-5.8,24.4c-4.5,9-11.7,14.9-19.5,17.3c-0.5,0.1-0.7,0.3-1.1,0.4c-0.4,0.1-0.5,0.1-0.9,0.2c-4.6,1.1-9.5,1-14-0.4
	C141.8,158.3,134.1,143,132.5,126.3z M154.6,180.1c-3.3-1-8.7-1.7-8.4-7.5c0.3-4.5,4.3-8.3,7.5-8.4c0.4,0,0.7-0.3,1-0.6
	c1.3,0.4,2.4,0.8,3.7,1.1c0.1,0,0.3,0,0.4,0.1c-0.2,0.1-0.3,0.2-0.3,0.4c0,1.2-0.1,2.5-0.3,3.7c-0.1,0.5,1.6,0.2,1.7-0.3
	c0.2-1.1,0.3-2.3,0.3-3.5c2.4,0.3,4.9,0.2,7.3-0.2c0,0,0,0,0,0c-0.2,1.6-0.1,3.1,0.6,4.4c0.3,0.5,1.9-0.3,1.8-0.6
	c-0.5-1-0.7-2.1-0.7-3.2c4.8,0.2,2.7,5.8,0.2,8.1c-2.4,2.1-6.4,1.8-9.2,1.9c-2.1,0-4.2,0.1-6.2-0.8c-1.4-0.7-2.1-2.5-2-4.4
	c0.1-2.9,3.6-3.6,5.2-3.6c0.7,0,1.9-1.2,0.7-1.3c-3-0.1-7.5,1.3-7.7,6c-0.2,5.6,6.6,5.3,9.3,5.2c1.3,0,2.7,0,4.1-0.1
	c-0.2,3.1,0.1,6.1,0.4,9.1C161.4,182.8,158.3,181.3,154.6,180.1z M176.4,178.4c-3.4,3.1-7.3,4.6-10.6,7.8c-0.3-3.2-0.6-6.4-0.4-9.7
	c2.7-0.4,5.3-1.5,7.1-4.1c2.9-4.2,0.9-7.5-2.5-8c0.3-0.1,0.7-0.2,1-0.3c2.6,0.1,5.1,0.8,7.2,2.7
	C182.1,170.2,179.2,175.9,176.4,178.4z"/>
<path fill="#FAFAFA" d="M274.4,50.4H49c-8.6,0-15.7,6.5-15.7,14.5v139c0,8,7,14.5,15.7,14.5h90.8v11.6h-3.1c-5.2,0-9.4,3.9-9.4,8.7
	c0,4.8,4.2,8.7,9.4,8.7h50.1c5.2,0,9.4-3.9,9.4-8.7c0-4.8-4.2-8.7-9.4-8.7h-3.1v-11.6h90.8c8.6,0,15.7-6.5,15.7-14.5v-139
	C290.1,56.9,283.1,50.4,274.4,50.4z M189.9,238.6c0,1.6-1.4,2.9-3.1,2.9h-50.1c-1.7,0-3.1-1.3-3.1-2.9s1.4-2.9,3.1-2.9h50.1
	C188.5,235.7,189.9,237,189.9,238.6z M177.4,229.9h-31.3v-11.6h31.3V229.9z M283.8,203.9c0,4.8-4.2,8.7-9.4,8.7H49
	c-5.2,0-9.4-3.9-9.4-8.7v-139c0-4.8,4.2-8.7,9.4-8.7h225.4c5.2,0,9.4,3.9,9.4,8.7V203.9z"/>
<path fill="#FAFAFA" d="M274.4,62H49c-1.7,0-3.1,1.3-3.1,2.9v139c0,1.6,1.4,2.9,3.1,2.9h225.4c1.7,0,3.1-1.3,3.1-2.9v-139
	C277.6,63.3,276.2,62,274.4,62z M271.3,201H52.2V67.8h219.2V201z"/>
<ellipse fill="#FAFAFA" cx="150.2" cy="132.6" rx="2.8" ry="4.6"/>
<ellipse fill="#FAFAFA" cx="177.9" cy="132.6" rx="2.8" ry="4.6"/>
</svg>
