<?xml version="1.0" encoding="utf-8"?>
<!-- Generator: Adobe Illustrator 18.1.1, SVG Export Plug-In . SVG Version: 6.00 Build 0)  -->
<svg version="1.1" id="Layer_1" xmlns="http://www.w3.org/2000/svg" xmlns:xlink="http://www.w3.org/1999/xlink" x="0px" y="0px"
	 viewBox="0 0 200 200" enable-background="new 0 0 200 200" xml:space="preserve">
<path id="quote-15-icon" fill="#FAFAFA" d="M82.6,89.1C82.6,89.1,82.6,89.1,82.6,89.1c-4.7,2.6-14.9,5.2-22.1,6.4
	c2.7-4.8,5.7-11.4,5.5-16c-3.6-3.9-5.7-9-5.7-14.1c0-14.5,15.7-25.1,33.2-25.1c17.4,0,33.2,10.5,33.2,25.1c0,0.2,0,0.4,0,0.6
	c-2-1-4.2-1.8-6.6-2.4c-1.2-9.8-12.7-17.6-26.6-17.6c-14.7,0-26.7,8.7-26.7,19.3c0,5.6,2.7,9.1,6.5,12.6c-0.8,5.2-2.6,9.7-2.6,9.7
	s5.5-1.3,11.7-4.6C82.1,85.1,82.2,87.2,82.6,89.1z M130.3,95.2c2.5-2.7,3.9-6.2,3.9-9.7c0-10-10.8-17.3-22.8-17.3
	c-12,0-22.8,7.2-22.8,17.3c0,10.5,12.8,20.2,30.4,16.3c3.2,1.8,10.2,3.6,15.2,4.4C132.2,102.9,130.2,98.4,130.3,95.2z M110.2,84.8
	c0,4.3-3,7.3-7.5,8.1l-0.8-1.6c2.1-0.7,3.4-2.4,3.4-4h-3.5v-7.2h8.4C110.2,79.9,110.2,82.3,110.2,84.8z M122,84.8
	c0,4.3-3,7.3-7.5,8.1l-0.8-1.6c2.1-0.7,3.4-2.4,3.4-4h-3.5v-7.2h8.4C122,79.9,122,82.3,122,84.8z M92.5,66.4c0,0,0-2.4,0-5
	c0-4.5,3.2-7.5,7.7-8.4l0.9,1.7c-2.1,0.7-3.5,2.5-3.5,4.2h3.6v7.5H92.5z M80.2,66.4c0,0,0-2.4,0-5c0-4.5,3.2-7.5,7.7-8.4l0.9,1.7
	c-2.1,0.7-3.5,2.5-3.5,4.2H89v7.5H80.2z"/>
<g>
	<g>
		<path fill="#FAFAFA" d="M187.8,158c-1.7-4.3-11.9-18.3-17.3-28.9c-0.2-0.4-0.4-0.8-0.6-1.1c-1.1-1.8-1.3-4.1-0.6-6.1
			c0.3-0.8,0.5-1.7,0.5-2.7l0-87.9c0-4-3.1-7.3-6.8-7.3L33.7,24c-3.8,0-6.8,3.3-6.8,7.3l0,87.9c0,0.9,0.2,1.8,0.5,2.6
			c0.7,1.8,0.3,3.8-0.6,5.4c0,0,0,0,0,0c-5.7,10.5-17.2,25.1-19,29.3c-1.2,2.9-8.2,14.2,2.4,14.5c0.3,0,0.7,0,1.2,0l-0.1,0.1
			c0,0,1.6,0,4.6,0c7.6,0.1,20.6,0.2,36.1,0.4c48.4,0.5,124,1.1,133.2,0.9C195.8,172.2,188.9,160.9,187.8,158z M97.2,29.3
			c0.6,0,1.1,0.5,1.1,1.1c0,0.6-0.5,1.1-1.1,1.1c-0.6,0-1.1-0.5-1.1-1.1C96.1,29.8,96.6,29.3,97.2,29.3z M44.2,35.3l106.5,0
			c3.6,0,6.5,2.9,6.5,6.5l0,66.1c0,3.6-2.9,6.5-6.5,6.5l-106.5,0c-3.6,0-6.5-2.9-6.5-6.5l0-66.1C37.7,38.3,40.6,35.3,44.2,35.3z
			 M81.9,160.2l0.8-3.7c0.6-3,3.3-5.2,6.4-5.2l21.9,0c3.1,0,5.7,2.1,6.4,5.1l0.8,3.7c0.9,4.1-2.2,7.9-6.4,7.9l-23.5,0
			C84.2,168,81.1,164.2,81.9,160.2z M31.1,137.6l2.9-4.3c1.2-1.8,3.3-2.9,5.4-2.9l117,0.3c2.3,0,4.4,1.2,5.5,3.1l2.5,4
			c2.7,4.4-0.5,10-5.6,10l-122.4,0C31.3,147.8,28.1,141.9,31.1,137.6z"/>
	</g>
</g>
</svg>
